<?xml version="1.0" encoding="utf-8"?>
<!-- Uploaded to: SVG Repo, www.svgrepo.com, Generator: SVG Repo Mixer Tools -->
<svg width="800px" height="800px" viewBox="0 0 2 2" fill="#FFFFFF" xmlns="http://www.w3.org/2000/svg" transform="scale(.75, .75)">
    <path
        d="M 0.5237 0.0027 C 0.5062 0.0029 0.494 0.011 0.4866 0.0305 C 0.4553 0.1126 0.4179 0.1981 0.3998 0.2949 C 0.4049 0.2972 0.4099 0.2998 0.4148 0.3027 C 0.4279 0.3104 0.4405 0.3203 0.4515 0.3322 C 0.5007 0.2627 0.5555 0.2093 0.6078 0.1542 C 0.6281 0.1328 0.6297 0.1173 0.626 0.0976 C 0.6223 0.0779 0.6084 0.0531 0.5893 0.0346 C 0.5703 0.016 0.5466 0.0037 0.5272 0.0028 C 0.526 0.0027 0.5248 0.0027 0.5237 0.0027 Z M 0.4003 0.0047 C 0.3824 0.0043 0.3685 0.0221 0.3576 0.0598 C 0.3416 0.1147 0.3393 0.2051 0.355 0.2859 C 0.3552 0.2859 0.3555 0.2859 0.3558 0.2859 C 0.3594 0.2856 0.3629 0.2857 0.3665 0.2859 C 0.3834 0.1913 0.4165 0.11 0.4452 0.0371 C 0.4268 0.014 0.4115 0.0051 0.4003 0.0047 Z M 0.2264 0.163 L 0.2076 0.2051 C 0.2341 0.2324 0.2596 0.2587 0.2788 0.2904 C 0.2858 0.3019 0.292 0.3141 0.2972 0.3274 C 0.304 0.3145 0.3125 0.3046 0.3217 0.298 C 0.3224 0.2975 0.3232 0.2971 0.3239 0.2966 C 0.3178 0.2818 0.3109 0.2683 0.3033 0.2559 C 0.2805 0.2183 0.2529 0.1903 0.2264 0.163 Z M 0.6264 0.1964 C 0.5741 0.2514 0.5217 0.3028 0.4756 0.3671 C 0.4764 0.3686 0.4772 0.3702 0.4779 0.3718 C 0.5149 0.3535 0.5664 0.3302 0.61 0.3191 C 0.6306 0.3139 0.638 0.3013 0.6414 0.2831 C 0.6449 0.265 0.6422 0.2377 0.6319 0.2097 C 0.6303 0.2053 0.6284 0.2008 0.6264 0.1964 Z M 0.2261 0.3265 C 0.1994 0.3271 0.173 0.3382 0.1475 0.3612 L 0.1646 0.4048 C 0.2033 0.3698 0.2408 0.3664 0.2812 0.3924 C 0.2822 0.3772 0.2844 0.3634 0.2879 0.3511 C 0.2885 0.3489 0.2892 0.3467 0.2899 0.3447 C 0.2687 0.3324 0.2473 0.3261 0.2261 0.3265 Z M 0.3616 0.3372 C 0.3516 0.337 0.3427 0.3392 0.3358 0.3441 C 0.328 0.3496 0.3225 0.3574 0.3186 0.3712 C 0.317 0.3768 0.3158 0.3835 0.315 0.3916 C 0.3158 0.3915 0.3167 0.3915 0.3175 0.3915 C 0.3462 0.3913 0.3757 0.399 0.4056 0.4165 C 0.4194 0.4245 0.4325 0.4367 0.445 0.4523 C 0.4508 0.4457 0.454 0.4395 0.4554 0.4345 C 0.4575 0.4269 0.4573 0.4204 0.4542 0.4106 C 0.448 0.3908 0.427 0.3645 0.4026 0.35 C 0.3904 0.3428 0.3776 0.3385 0.3659 0.3375 C 0.3645 0.3373 0.363 0.3373 0.3616 0.3372 Z M 0.3174 0.4418 C 0.2763 0.442 0.2374 0.4619 0.2012 0.4956 C 0.1432 0.5495 0.0929 0.64 0.0575 0.7403 C 0.0222 0.8407 0.0019 0.9508 0.0018 1.0409 C 0.0017 1.1308 0.0201 1.1966 0.0604 1.2252 C 0.0605 1.2252 0.0606 1.2253 0.0607 1.2253 H 0.0607 C 0.1052 1.2566 0.178 1.2779 0.2545 1.28 C 0.331 1.282 0.4115 1.2651 0.4724 1.2251 C 0.5116 1.1993 0.5341 1.1477 0.5448 1.0778 C 0.5554 1.0079 0.5529 0.9211 0.5405 0.835 C 0.5282 0.7489 0.5062 0.6635 0.4796 0.5961 C 0.453 0.5286 0.4213 0.4801 0.3937 0.464 C 0.3675 0.4487 0.342 0.4417 0.3174 0.4418 Z"
        stroke="none"
        stroke-linejoin="round"
        fill="#FF0000"
    />
</svg>